<?xml version="1.0" encoding="UTF-8"?>
<svg width="256px" height="256px" viewBox="0 0 256 256" version="1.1" xmlns="http://www.w3.org/2000/svg" xmlns:xlink="http://www.w3.org/1999/xlink">
    <title>icon copy 13</title>
    <defs>
        <polygon id="path-1" points="0 0 247 0 247 190 0 190"></polygon>
        <polygon id="path-3" points="0 0 44 0 44 24 0 24"></polygon>
        <polygon id="path-5" points="0 0 34 0 34 24 0 24"></polygon>
        <polygon id="path-7" points="0 0 44 0 44 24 0 24"></polygon>
        <polygon id="path-9" points="0 0 34 0 34 24 0 24"></polygon>
    </defs>
    <g id="icon-copy-13" stroke="none" stroke-width="1" fill="none" fill-rule="evenodd">
        <g id="Group-136" transform="translate(4.000000, 29.000000)">
            <g id="Group-3">
                <mask id="mask-2" fill="white">
                    <use xlink:href="#path-1"></use>
                </mask>
                <g id="Clip-2"></g>
                <path d="M28.9134502,147.028344 C16.0213091,128.247333 4.82055689,107.674165 1.15884858,85.1840829 C-2.50285972,62.6940006 2.34578807,37.926592 18.070758,21.4526117 C21.7799439,17.567295 26.282401,14.0760548 31.5820858,13.2166116 C40.5830435,11.7551622 48.7788606,18.0445434 57.4217583,20.9535802 C83.8509441,29.8509949 109.682704,6.9648559 137.000116,1.3784755 C158.276006,-2.97220785 180.386711,3.52510306 199.866366,13.1334397 C220.798043,23.4586391 241.375618,39.6098332 246.008638,62.5038933 C250.18073,83.1087455 240.457718,103.763105 230.40434,122.221329 C223.082902,135.661515 215.21745,149.190814 203.682376,159.240753 C188.097861,172.821539 167.44907,178.702982 147.530247,184.20223 C135.399726,187.55089 122.940818,190.931234 110.410693,189.764847 C85.3484661,187.430092 65.6373578,167.811421 42.2388241,158.51993" id="Fill-1" fill="#005E72" mask="url(#mask-2)"></path>
            </g>
            <path d="M52.1013032,178.737345 L52.1073184,178.872288 C50.9965232,177.567836 49.3283255,176.249693 46.8701399,175 L30.7736358,179.811025 C30.7736358,179.811025 25.8412243,196.508801 29.1315037,197.903216 C32.4197781,199.299587 36.5501715,197.711557 36.5501715,197.711557 C36.5501715,197.711557 39.9948394,199.491245 42.4249544,198.867377 C44.8530643,198.243508 45.9197484,196.946878 45.9197484,196.946878 C45.9197484,196.946878 49.9579098,199.518625 53.4547089,198.617047 C56.953513,197.715469 59.6422788,183.78501 52.1574445,188.877655 C52.1574445,188.877655 53.1198663,187.776596 53.6732588,186.077091 C55.5439661,186.974758 58.9264776,188.226407 60.6448015,186.556238 C63.0909568,184.17615 52.1013032,178.737345 52.1013032,178.737345" id="Fill-4" fill="#BCE1E7"></path>
            <path d="M53.00319,179.074817 C51.9206174,177.702139 50.2967585,176.315055 47.8990752,175 L33.0322662,179.797171 C33.2179059,179.994738 33.3996374,180.192305 33.5911394,180.385756 C33.5911394,180.385756 32.7489214,180.813818 31.8578508,181.429156 C31.6292209,182.324381 31.3204727,183.596218 31,185.061506 C33.4738933,185.790034 38.2536271,183.610624 38.2536271,183.610624 C38.2536271,183.610624 48.7491097,187.835674 53.6714929,185.049158 C55.606054,183.954308 56.0965337,182.301743 55.9851498,180.69857 C54.3495664,179.65517 52.9973277,178.932816 52.9973277,178.932816 L53.00319,179.074817 Z" id="Fill-6" fill="#E2F1F3"></path>
            <path d="M53.00319,179.074817 C51.9206174,177.702139 50.2967585,176.315055 47.8990752,175 L33.0322662,179.797171 C33.2179059,179.994738 33.3996374,180.192305 33.5911394,180.385756 C33.5911394,180.385756 32.7489214,180.813818 31.8578508,181.429156 C31.6292209,182.324381 31.3204727,183.596218 31,185.061506 C33.4738933,185.790034 38.2536271,183.610624 38.2536271,183.610624 C38.2536271,183.610624 48.7491097,187.835674 53.6714929,185.049158 C55.606054,183.954308 56.0965337,182.301743 55.9851498,180.69857 C54.3495664,179.65517 52.9973277,178.932816 52.9973277,178.932816 L53.00319,179.074817 Z" id="Fill-8" fill="#E2F1F3"></path>
            <path d="M42.7666466,198.866951 C45.1520308,198.241082 46.1990806,196.942255 46.1990806,196.942255 C46.1990806,196.942255 50.160944,199.520289 53.5953462,198.615819 C57.0297483,197.711348 59.6670543,183.736206 52.3199922,188.845187 C52.3199922,188.845187 53.2646989,187.740595 53.8079052,186.03564 C55.6441786,186.936186 58.9663969,188.191849 60.6511237,186.516323 C62.6999562,184.479794 55.1521439,180.210538 52.8907525,179 C51.8751929,179.572896 50.9855942,180.449899 52.8907525,181.250384 C56.0633922,182.582565 50.4227065,191.898019 50.4227065,191.898019 C51.5071509,191.219176 52.5640414,190.167557 52.5640414,190.167557 C52.5640414,190.167557 53.9063121,194.279856 51.1273001,195.859245 C48.34632,197.440596 46.1951444,195.796462 46.1951444,195.796462 C42.8827668,200.579755 37,197.707425 37,197.707425 C37,197.707425 40.3812624,199.492821 42.7666466,198.866951" id="Fill-10" fill="#E2F1F3"></path>
            <path d="M74.9452941,66 C74.9452941,66 52.1824408,69.984455 36.1056084,119.446246 C36.1056084,119.446246 30.0745768,114.422196 33.0595133,122.918809 C33.0595133,122.918809 11.4172442,159.288819 31.6212987,178.606311 C31.6212987,178.606311 26.1584506,181.240874 28.2654646,182.768643 C30.3705057,184.296413 36.3265687,181.705332 36.3265687,181.705332 C36.3265687,181.705332 46.9247701,185.762914 51.8924304,183.086846 C56.8600907,180.408803 52.4231296,174.27796 52.4231296,174.27796 C52.4231296,174.27796 68.2573003,147.274186 56.7930135,122.031398 C56.7930135,122.031398 62.9759553,101.87393 81,90.0035743" id="Fill-12" fill="#FEFEFE"></path>
            <path d="M74.9452941,66 C74.9452941,66 52.1824408,69.984455 36.1056084,119.446246 C36.1056084,119.446246 30.0745768,114.422196 33.0595133,122.918809 C33.0595133,122.918809 11.4172442,159.288819 31.6212987,178.606311 C31.6212987,178.606311 26.1584506,181.240874 28.2654646,182.768643 C30.3705057,184.296413 36.3265687,181.705332 36.3265687,181.705332 C36.3265687,181.705332 46.9247701,185.762914 51.8924304,183.086846 C56.8600907,180.408803 52.4231296,174.27796 52.4231296,174.27796 C52.4231296,174.27796 68.2573003,147.274186 56.7930135,122.031398 C56.7930135,122.031398 62.9759553,101.87393 81,90.0035743" id="Fill-14" fill="#E2F1F3"></path>
            <path d="M70.2723042,71.0842382 C68.6219584,72.4037116 65.6600013,75.3319122 66.4556334,78.8881505 C60.9393822,88.2968276 57.3354051,99.1993229 56.2955691,111.001279 C55.1710495,123.774019 57.2999561,134.801329 61.9201366,144 C62.2785649,136.770633 61.3273513,128.887473 57.8356292,121.166771 C57.8356292,121.166771 64.0076861,100.962583 82,89.0615674 L75.9559532,65 C75.9559532,65 74.6069236,65.2397241 72.3401599,66.3115486 C72.3401599,66.7830721 72.3480374,67.1812915 72.3578843,67.476489 C72.1550375,67.1872351 71.9699152,66.8841129 71.7966092,66.5770282 C71.6705685,66.6384451 71.5445278,66.7038245 71.4145483,66.771185 C71.5681604,67.0782696 71.7335889,67.3813918 71.9167418,67.672627 C71.6587522,67.4784702 71.3101708,67.2407273 70.9182629,67.0346834 C70.2191307,67.4150721 69.460917,67.8628213 68.6495298,68.3917994 C69.5908965,69.3625831 71.3101708,70.3294044 71.3101708,70.3294044 C71.3101708,70.3294044 71.1624668,70.4225204 70.9202323,70.594884" id="Fill-16" fill="#E2F1F3"></path>
            <path d="M70.2723042,71.0842382 C68.6219584,72.4037116 65.6600013,75.3319122 66.4556334,78.8881505 C60.9393822,88.2968276 57.3354051,99.1993229 56.2955691,111.001279 C55.1710495,123.774019 57.2999561,134.801329 61.9201366,144 C62.2785649,136.770633 61.3273513,128.887473 57.8356292,121.166771 C57.8356292,121.166771 64.0076861,100.962583 82,89.0615674 L75.9559532,65 C75.9559532,65 74.6069236,65.2397241 72.3401599,66.3115486 C72.3401599,66.7830721 72.3480374,67.1812915 72.3578843,67.476489 C72.1550375,67.1872351 71.9699152,66.8841129 71.7966092,66.5770282 C71.6705685,66.6384451 71.5445278,66.7038245 71.4145483,66.771185 C71.5681604,67.0782696 71.7335889,67.3813918 71.9167418,67.672627 C71.6587522,67.4784702 71.3101708,67.2407273 70.9182629,67.0346834 C70.2191307,67.4150721 69.460917,67.8628213 68.6495298,68.3917994 C69.5908965,69.3625831 71.3101708,70.3294044 71.3101708,70.3294044 C71.3101708,70.3294044 71.1624668,70.4225204 70.9202323,70.594884" id="Fill-18" fill="#E2F1F3"></path>
            <path d="M199.926983,175.54897 L199.916817,175.681829 C201.045257,174.421674 202.716567,173.165544 205.162536,172 L220.749233,177.274135 C220.749233,177.274135 225.037303,194.002404 221.776011,195.284703 C218.512686,196.569015 214.525533,194.86398 214.525533,194.86398 C214.525533,194.86398 211.099551,196.524729 208.745077,195.830234 C206.38857,195.135739 205.388224,193.817205 205.388224,193.817205 C205.388224,193.817205 201.358373,196.242905 197.964922,195.240416 C194.573504,194.237928 192.389821,180.325887 199.546771,185.614113 C199.546771,185.614113 198.641986,184.490843 198.154012,182.785808 C196.297678,183.619202 192.946925,184.756563 191.322379,183.045488 C189.006536,180.607711 199.926983,175.54897 199.926983,175.54897" id="Fill-20" fill="#BCE1E7"></path>
            <path d="M200.952964,174.559408 C202.037661,173.341153 203.644186,172.126789 205.995341,171 L220.192171,175.832154 C220.008457,176.005357 219.828651,176.180505 219.637119,176.351762 C219.637119,176.351762 220.436472,176.76628 221.278823,177.355947 C221.472309,178.179145 221.732246,179.348748 222,180.695446 C219.592167,181.283167 215.046211,179.150247 215.046211,179.150247 C215.046211,179.150247 204.799242,182.680463 200.134066,179.987068 C198.298876,178.928392 197.874769,177.406545 198.029167,175.94892 C199.637646,175.047878 200.962736,174.430966 200.962736,174.430966 L200.952964,174.559408 Z" id="Fill-22" fill="#E2F1F3"></path>
            <path d="M200.952964,174.559408 C202.037661,173.341153 203.644186,172.126789 205.995341,171 L220.192171,175.832154 C220.008457,176.005357 219.828651,176.180505 219.637119,176.351762 C219.637119,176.351762 220.436472,176.76628 221.278823,177.355947 C221.472309,178.179145 221.732246,179.348748 222,180.695446 C219.592167,181.283167 215.046211,179.150247 215.046211,179.150247 C215.046211,179.150247 204.799242,182.680463 200.134066,179.987068 C198.298876,178.928392 197.874769,177.406545 198.029167,175.94892 C199.637646,175.047878 200.962736,174.430966 200.962736,174.430966 L200.952964,174.559408 Z" id="Fill-24" fill="#E2F1F3"></path>
            <path d="M208.348722,195.831299 C206.046865,195.14181 205.066886,193.83278 205.066886,193.83278 C205.066886,193.83278 201.127093,196.240995 197.809477,195.245733 C194.493849,194.250471 192.360954,180.438709 199.355975,185.688817 C199.355975,185.688817 198.47141,184.573644 197.994341,182.880899 C196.179492,183.708286 192.903619,184.839447 191.315378,183.138708 C189.383249,181.074238 196.869254,177.117172 199.10949,176 C200.079529,176.59356 200.920363,177.482901 199.037929,178.208363 C195.907165,179.419465 201.109203,188.744552 201.109203,188.744552 C200.073566,188.045071 199.077685,186.977862 199.077685,186.977862 C199.077685,186.977862 197.642503,190.974899 200.300174,192.615682 C202.957845,194.254468 205.104654,192.707614 205.104654,192.707614 C208.183736,197.510054 214,194.874008 214,194.874008 C214,194.874008 210.650579,196.520787 208.348722,195.831299" id="Fill-26" fill="#E2F1F3"></path>
            <path d="M181.711688,65 C181.711688,65 203.98668,69.5595345 218.251532,117.900512 C218.251532,117.900512 224.343184,113.22798 221.140336,121.353864 C221.140336,121.353864 241.29553,157.205682 220.806161,175.26342 C220.806161,175.26342 226.09861,177.9813 223.976799,179.392773 C221.857001,180.806228 216.07738,178.114121 216.07738,178.114121 C216.07738,178.114121 205.522678,181.712188 200.717399,178.968538 C195.914134,176.22687 200.473814,170.432296 200.473814,170.432296 C200.473814,170.432296 185.739908,143.822457 197.812491,119.760009 C197.812491,119.760009 192.361006,100.07075 175,88.0296139" id="Fill-28" fill="#FEFEFE"></path>
            <g id="Group-32" transform="translate(81.000000, 189.000000)">
                <mask id="mask-4" fill="white">
                    <use xlink:href="#path-3"></use>
                </mask>
                <g id="Clip-31"></g>
                <path d="M14.7699827,0 C14.7699827,0 12.4753587,12.7379383 5.79558549,15.1265489 C5.79558549,15.1265489 2.30411103,13.2362246 0.508835286,15.7237016 C-1.28644046,18.2111785 1.80476281,22.0926707 7.64039974,20.1015028 C7.64039974,20.1015028 13.0737839,23.886106 17.7621089,20.6492223 C17.7621089,20.6492223 23.9821647,24.878724 27.073368,20.5997891 C27.073368,20.5997891 29.3679919,24.2815713 34.8528962,23.982995 C40.3378004,23.6844187 40.2387234,17.9126022 40.2387234,17.9126022 C40.2387234,17.9126022 43.8431457,17.8532824 43.9283519,16.8171632 C44.6258542,8.29290799 40.0009386,0 40.0009386,0" id="Fill-30" fill="#BCE1E7" mask="url(#mask-4)"></path>
            </g>
            <g id="Group-35" transform="translate(91.000000, 189.000000)">
                <mask id="mask-6" fill="white">
                    <use xlink:href="#path-5"></use>
                </mask>
                <g id="Clip-34"></g>
                <path d="M26.971909,0 C27.0544039,0.130503559 27.1408272,0.261007118 27.2331429,0.397442658 C34.249139,10.6815186 22.1930964,13.4003427 22.1930964,13.4003427 C27.9932746,13.7325336 29.1128485,20.8983654 23.8410306,21.604271 C18.5692126,22.3101766 17.0528775,17.0504877 17.0528775,17.0504877 C17.0528775,17.0504877 16.1965017,20.8983654 13.1638315,21.1633272 C10.1331254,21.428289 7.82719614,19.1069075 7.82719614,19.1069075 C6.19104698,22.9923543 0.0923157387,21.1929871 0,21.1653045 C1.99362712,21.9740311 5.13236224,22.6423675 7.99218597,20.6492223 C7.99218597,20.6492223 14.1576988,24.878724 17.2217957,20.5997891 C17.2217957,20.5997891 19.4962983,24.2815713 24.9331061,23.982995 C30.3699139,23.6844187 30.2697415,17.9126022 30.2697415,17.9126022 C30.2697415,17.9126022 33.8445211,17.8532824 33.9289802,16.8171632 C34.6203662,8.29290799 30.0360059,0 30.0360059,0 L26.971909,0 Z" id="Fill-33" fill="#E2F1F3" mask="url(#mask-6)"></path>
            </g>
            <path d="M119.96875,188 L95.0996094,188 C95.0996094,188 94.7695312,189.950813 94,192.50396 C95.4882812,192.014173 97.1640625,191.147145 97.1640625,191.147145 C97.1640625,191.147145 96.3769531,198 99.7851562,198 C103.193359,198 104.242188,192.126719 104.242188,192.126719 C104.242188,192.126719 109.353516,194.363068 111.712891,194.083785 C114.070312,193.804502 114.726562,191.426428 114.726562,191.426428 C114.726562,191.426428 114.201172,195.482284 116.167969,195.06336 C118.134766,194.642351 117.871094,191.147145 117.871094,191.147145 C117.871094,191.147145 119.90625,192.228845 122,192.993747 C120.994141,189.967486 119.96875,188 119.96875,188" id="Fill-36" fill="#E2F1F3"></path>
            <path d="M59,130 C59,130 68.6037357,168.764057 93.4171964,188.664075 C93.4171964,188.664075 90.4810098,190.68193 91.0157655,191.755982 C91.5485333,192.832037 96.4845871,190.411413 96.4845871,190.411413 C96.4845871,190.411413 95.6834475,197 99.1524019,197 C102.621356,197 103.68888,191.353212 103.68888,191.353212 C103.68888,191.353212 108.891317,193.505324 111.29076,193.234807 C113.692191,192.966294 114.360139,190.68193 114.360139,190.68193 C114.360139,190.68193 113.825383,194.581379 115.827238,194.176606 C117.827105,193.773837 117.560722,190.411413 117.560722,190.411413 C117.560722,190.411413 123.431107,193.371067 125.564166,192.832037 C127.699213,192.295011 121.29606,187.722275 121.29606,187.722275 C121.29606,187.722275 122.659786,178.508673 123.830683,169.569596 C125.001579,160.632522 59,130 59,130" id="Fill-38" fill="#FEFEFE"></path>
            <path d="M59,130 C59,130 68.6037357,168.764057 93.4171964,188.664075 C93.4171964,188.664075 90.4810098,190.68193 91.0157655,191.755982 C91.5485333,192.832037 96.4845871,190.411413 96.4845871,190.411413 C96.4845871,190.411413 95.6834475,197 99.1524019,197 C102.621356,197 103.68888,191.353212 103.68888,191.353212 C103.68888,191.353212 108.891317,193.505324 111.29076,193.234807 C113.692191,192.966294 114.360139,190.68193 114.360139,190.68193 C114.360139,190.68193 113.825383,194.581379 115.827238,194.176606 C117.827105,193.773837 117.560722,190.411413 117.560722,190.411413 C117.560722,190.411413 123.431107,193.371067 125.564166,192.832037 C127.699213,192.295011 121.29606,187.722275 121.29606,187.722275 C121.29606,187.722275 122.659786,178.508673 123.830683,169.569596 C125.001579,160.632522 59,130 59,130" id="Fill-40" fill="#E2F1F3"></path>
            <path d="M64,133 C71.8069884,158.846517 94.4201307,173.298461 122.157346,176 C122.430552,174.008136 122.713584,171.910915 122.984824,169.825621 C123.942025,162.482363 79.35453,140.381027 64,133" id="Fill-42" fill="#E2F1F3"></path>
            <path d="M64,133 C71.8069884,158.846517 94.4201307,173.298461 122.157346,176 C122.430552,174.008136 122.713584,171.910915 122.984824,169.825621 C123.942025,162.482363 79.35453,140.381027 64,133" id="Fill-44" fill="#E2F1F3"></path>
            <g id="Group-48" transform="translate(130.000000, 189.000000)">
                <mask id="mask-8" fill="white">
                    <use xlink:href="#path-7"></use>
                </mask>
                <g id="Clip-47"></g>
                <path d="M29.2300173,0 C29.2300173,0 31.5246413,12.7379383 38.2044145,15.1265489 C38.2044145,15.1265489 41.695889,13.2362246 43.4911647,15.7237016 C45.2864405,18.2111785 42.1952372,22.0926707 36.3596003,20.1015028 C36.3596003,20.1015028 30.9262161,23.886106 26.2378911,20.6492223 C26.2378911,20.6492223 20.0178353,24.878724 16.926632,20.5997891 C16.926632,20.5997891 14.6320081,24.2815713 9.14710381,23.982995 C3.66219955,23.6844187 3.76127658,17.9126022 3.76127658,17.9126022 C3.76127658,17.9126022 0.156854312,17.8532824 0.0716480679,16.8171632 C-0.625854208,8.29290799 3.99906145,0 3.99906145,0" id="Fill-46" fill="#BCE1E7" mask="url(#mask-8)"></path>
            </g>
            <g id="Group-51" transform="translate(130.000000, 189.000000)">
                <mask id="mask-10" fill="white">
                    <use xlink:href="#path-9"></use>
                </mask>
                <g id="Clip-50"></g>
                <path d="M7.02849703,0 C6.94599734,0.130503559 6.85956911,0.261007118 6.76724804,0.397442658 C-0.249153438,10.6815186 11.8075857,13.4003427 11.8075857,13.4003427 C6.0070724,13.7325336 4.88743387,20.8983654 10.1595564,21.604271 C15.4316789,22.3101766 16.9481016,17.0504877 16.9481016,17.0504877 C16.9481016,17.0504877 17.8045268,20.8983654 20.8373723,21.1633272 C23.8682534,21.428289 26.1743159,19.1069075 26.1743159,19.1069075 C27.8105596,22.9923543 33.9096432,21.1929871 34,21.1653045 C32.008222,21.9740311 28.8693055,22.6423675 26.0093166,20.6492223 C26.0093166,20.6492223 19.8434475,24.878724 16.7791737,20.5997891 C16.7791737,20.5997891 14.5045396,24.2815713 9.06741772,23.982995 C3.63029586,23.6844187 3.73047405,17.9126022 3.73047405,17.9126022 C3.73047405,17.9126022 0.155487857,17.8532824 0.0710238972,16.8171632 C-0.620402004,8.29290799 3.96422315,0 3.96422315,0 L7.02849703,0 Z" id="Fill-49" fill="#E2F1F3" mask="url(#mask-10)"></path>
            </g>
            <path d="M134.03125,188 L158.900391,188 C158.900391,188 159.230469,189.950813 160,192.50396 C158.511719,192.014173 156.835938,191.147145 156.835938,191.147145 C156.835938,191.147145 157.623047,198 154.214844,198 C150.806641,198 149.757812,192.126719 149.757812,192.126719 C149.757812,192.126719 144.646484,194.363068 142.287109,194.083785 C139.929688,193.804502 139.273438,191.426428 139.273438,191.426428 C139.273438,191.426428 139.798828,195.482284 137.832031,195.06336 C135.865234,194.642351 136.128906,191.147145 136.128906,191.147145 C136.128906,191.147145 134.09375,192.228845 132,192.993747 C133.005859,189.967486 134.03125,188 134.03125,188" id="Fill-52" fill="#E2F1F3"></path>
            <path d="M195,130 C195,130 185.396264,168.764057 160.582804,188.664075 C160.582804,188.664075 163.51899,190.68193 162.984234,191.755982 C162.451467,192.832037 157.515413,190.411413 157.515413,190.411413 C157.515413,190.411413 158.316553,197 154.847598,197 C151.378644,197 150.31112,191.353212 150.31112,191.353212 C150.31112,191.353212 145.108683,193.505324 142.70924,193.234807 C140.307809,192.966294 139.639861,190.68193 139.639861,190.68193 C139.639861,190.68193 140.174617,194.581379 138.172762,194.176606 C136.172895,193.773837 136.439278,190.411413 136.439278,190.411413 C136.439278,190.411413 130.568893,193.371067 128.435834,192.832037 C126.300787,192.295011 132.70394,187.722275 132.70394,187.722275 C132.70394,187.722275 131.340214,178.508673 130.169317,169.569596 C128.998421,160.632522 195,130 195,130" id="Fill-54" fill="#FEFEFE"></path>
            <path d="M195,130 C195,130 185.396264,168.764057 160.582804,188.664075 C160.582804,188.664075 163.51899,190.68193 162.984234,191.755982 C162.451467,192.832037 157.515413,190.411413 157.515413,190.411413 C157.515413,190.411413 158.316553,197 154.847598,197 C151.378644,197 150.31112,191.353212 150.31112,191.353212 C150.31112,191.353212 145.108683,193.505324 142.70924,193.234807 C140.307809,192.966294 139.639861,190.68193 139.639861,190.68193 C139.639861,190.68193 140.174617,194.581379 138.172762,194.176606 C136.172895,193.773837 136.439278,190.411413 136.439278,190.411413 C136.439278,190.411413 130.568893,193.371067 128.435834,192.832037 C126.300787,192.295011 132.70394,187.722275 132.70394,187.722275 C132.70394,187.722275 131.340214,178.508673 130.169317,169.569596 C128.998421,160.632522 195,130 195,130" id="Fill-56" fill="#E2F1F3"></path>
            <path d="M190,133 C182.193012,158.846517 159.579869,173.298461 131.842654,176 C131.569448,174.008136 131.288381,171.910915 131.015176,169.825621 C130.057975,162.482363 174.64547,140.381027 190,133" id="Fill-58" fill="#E2F1F3"></path>
            <path d="M190,133 C182.193012,158.846517 159.579869,173.298461 131.842654,176 C131.569448,174.008136 131.288381,171.910915 131.015176,169.825621 C130.057975,162.482363 174.64547,140.381027 190,133" id="Fill-60" fill="#E2F1F3"></path>
            <path d="M199.967476,71.9196903 C199.387568,68.3057522 190.018005,66.0159292 187.635041,65.4902655 C188.921525,64.1581858 190.13082,62.7524336 191.229279,61.2650442 C192.092213,60.084292 192.931397,58.8756637 193.584535,57.5575221 C194.241632,56.2493363 194.698828,54.8137168 194.7206,53.3462389 C194.639452,54.8117257 194.128817,56.2095133 193.428178,57.475885 C192.729518,58.7482301 191.852729,59.9110619 190.950211,61.0480088 C189.802272,62.4756637 188.553392,63.8137168 187.231282,65.074115 C187.747855,63.9969027 189.354971,60.295354 187.084821,60.295354 C185.669689,60.295354 184.749358,61.5816372 184.193201,62.7862832 C178.918615,55.2358407 172.393172,48.7685841 164.955314,43.7449115 C164.270509,40.3719027 161.002839,38.8387168 158.782169,38.1776549 C160.37741,37.7037611 162.02213,37.3871681 163.688622,37.2736726 C166.538679,37.0785398 169.475822,37.504646 172.090353,38.7590708 C169.52926,37.3971239 166.578263,36.8396018 163.672788,36.9192478 C161.646081,36.9730088 159.635207,37.319469 157.685689,37.8949115 C157.068176,37.7615044 156.670356,37.715708 156.670356,37.715708 C156.670356,37.715708 160.124071,33.5721239 158.132989,33.4387168 C156.252743,33.3132743 154.255724,36.2761062 154.036032,36.6126106 C154.032074,34.7050885 153.986552,32.7995575 153.86582,30.8980088 C153.786652,29.7371681 153.723318,28.5404867 153.357164,27.4095133 C152.996949,26.2924779 152.278497,25.2311947 151.213684,24.7254425 C152.250788,25.2849558 152.892051,26.360177 153.186953,27.4612832 C153.487792,28.5783186 153.49373,29.7471239 153.511542,30.9119469 C153.529355,32.2480088 153.509563,33.5800885 153.469979,34.9121681 C152.24683,31.6606195 148.676341,24.8946903 139.936166,24.0862832 C128.381558,23.0170354 122.804155,29.430531 122.804155,29.430531 C122.804155,29.430531 122.847697,29.2692478 122.91499,28.9964602 C124.615129,26.7663717 126.45777,24.6577434 128.662606,22.9314159 C130.269721,21.675 132.072778,20.6535398 134.008442,19.9984513 C135.940148,19.3433628 138.026231,19.0685841 140.062835,19.3672566 C138.036127,19.0108407 135.926293,19.2219027 133.955004,19.8292035 C131.977776,20.4365044 130.121281,21.4181416 128.448851,22.6466814 C126.475583,24.1022124 124.771486,25.8544248 123.196038,27.7181416 C123.257393,27.4174779 123.318748,27.0869469 123.380104,26.7345133 C123.391979,26.6986726 123.401875,26.6628319 123.41375,26.6289823 C124.007512,24.9185841 124.722006,23.2440265 125.670046,21.7028761 C126.616106,20.1676991 127.805609,18.7679204 129.278139,17.7126106 C130.740772,16.6612832 132.474557,15.9384956 134.295427,15.8269912 C132.472578,15.8787611 130.695251,16.5477876 129.177199,17.5652655 C127.649252,18.5867257 126.386518,19.9785398 125.371185,21.5117257 C124.71013,22.5152655 124.153973,23.5825221 123.659172,24.6756637 C123.991679,21.2986726 123.680943,17.3860619 120.413273,17.5393805 C116.433089,17.7265487 116.840806,23.1683628 117.45238,26.4497788 C116.45486,23.9528761 115.299004,21.5256637 113.951164,19.2059735 C112.933852,17.4876106 111.746328,15.8389381 110.232235,14.5227876 C108.730018,13.2165929 106.891335,12.2409292 104.914108,12 C106.881439,12.3006637 108.670642,13.324115 110.115462,14.6561947 C111.5682,15.9982301 112.69041,17.6548673 113.644387,19.3831858 C114.950664,21.7904867 116.053082,24.3053097 116.983309,26.8798673 C112.726036,19.6480088 102.499476,11.7411504 97.0388454,19.6778761 C91.0616419,28.3612832 106.202571,32.1026549 106.202571,32.1026549 C105.539537,32.0429204 104.910149,32.0070796 104.296595,31.9831858 C104.031382,31.8676991 103.770126,31.7442478 103.498975,31.6466814 C101.684043,30.9736726 99.7721294,30.6471239 97.8681329,30.5236726 C95.9601779,30.3962389 94.0542021,30.4679204 92.1561431,30.5754425 C91.2120616,30.6311947 90.2343336,30.7088496 89.3516076,31.1030973 C88.4866944,31.4893805 87.7128247,32.2460177 87.5643842,33.2097345 C87.7425127,32.2519912 88.5322161,31.5371681 89.3872333,31.1847345 C90.2620425,30.8263274 91.2219577,30.7785398 92.1640599,30.7526549 C94.0601397,30.7048673 95.9601779,30.6949115 97.8384448,30.8800885 C99.5286871,31.0413717 101.199137,31.3798673 102.780523,31.9573009 C89.9869328,32.0488938 88.924099,40.3320796 89.1141028,44.1331858 C85.0488128,46.9347345 81.2665493,50.1723451 77.8167925,53.7823009 C77.7000193,52.155531 77.6386639,50.5387168 77.850439,48.9278761 C78.02263,47.629646 78.3986792,46.3493363 79.0181708,45.1884956 C79.6356832,44.0316372 80.5243469,42.9942478 81.6722866,42.3212389 C80.496638,42.9404867 79.5446397,43.95 78.8637927,45.100885 C78.1789873,46.2537611 77.7376242,47.5480088 77.5020987,48.874115 C77.179488,50.7019912 77.2032385,52.5477876 77.2626147,54.3776549 C76.9677129,54.6942478 76.6688528,55.0068584 76.3779094,55.3294248 C76.0018602,52.7050885 74.9410056,49.0334071 71.9385494,49.204646 C67.9069059,49.4376106 68.7698399,58.9115044 69.0706793,61.4223451 C68.3284769,60.5482301 67.7208605,59.5566372 67.2715806,58.4893805 C66.2720814,56.0960177 66.0147845,53.4457965 65.8663441,50.8413717 C65.8980114,53.4497788 66.028639,56.1139381 66.9430324,58.6207965 C67.3428321,59.7099558 67.9088851,60.7413717 68.6154618,61.6732301 C67.7287773,61.1216814 65.9296787,60.2176991 64.7659053,61.0977876 C63.1726441,62.3004425 68.2196205,64.570354 68.2196205,64.570354 C68.2196205,64.570354 68.0692008,64.6838496 67.8257584,64.8909292 C66.1473914,64.8530973 64.4690243,64.8869469 62.7985741,64.9964602 C61.6921977,65.0840708 60.5739461,65.1298673 59.4814241,65.404646 C58.4047358,65.6774336 57.3399228,66.2767699 56.7897034,67.2663717 C57.3913821,66.3106195 58.4601536,65.7889381 59.5210082,65.5798673 C60.5957173,65.3668142 61.7080313,65.3787611 62.8124285,65.3528761 C64.2711037,65.3349558 65.7277996,65.3807522 67.1805371,65.4763274 C65.539775,67.0433628 62.6501336,70.4542035 63.8356783,74.179646 C58.8263068,84.7586283 56,96.7533186 56,109.464823 C56,152.190929 87.9305374,174 127.320704,174 C166.708891,174 198.639428,152.190929 198.639428,109.464823 C198.639428,99.3836283 196.860122,89.7524336 193.626098,80.9216814 C195.720099,77.3814159 190.936357,71.9196903 190.936357,71.9196903 C190.936357,71.9196903 200.63051,76.0612832 199.967476,71.9196903" id="Fill-62" fill="#FEFEFE"></path>
            <path d="M162,66.3138612 C162,83.1322458 145.882441,90 125.999004,90 C106.117559,90 90,83.1322458 90,66.3138612 C90,49.4954766 104.641096,26.9028789 125.999004,44.219586 C146.958406,36.4580152 162,49.4954766 162,66.3138612" id="Fill-64" fill="#BCE1E7"></path>
            <path d="M125.999004,45.4952679 C146.68543,37.8100482 161.595517,50.4514908 161.980075,67 C161.986052,66.7977052 162,66.6013602 162,66.3970821 C162,49.5292645 146.956413,36.453483 125.999004,44.2378668 C104.639103,26.8702619 90,49.5292645 90,66.3970821 C90,66.5378952 90.0099626,66.6727584 90.0119552,66.8135714 C90.4861768,50.0469012 104.993773,28.415239 125.999004,45.4952679" id="Fill-66" fill="#99D2D7"></path>
            <path d="M199,109.724217 C199,107.647862 198.918647,105.593322 198.769832,103.558613 C196.27568,126.067333 185.209743,147.689587 152.398854,158.828924 C116.448945,171.033212 67.9171627,148.367823 66.9191053,106.664221 C65.9210479,64.9586361 90.3526204,47.344323 90.3526204,47.344323 C89.8347417,31.524758 110.623305,32.9724554 110.623305,32.9724554 C110.623305,32.9724554 92.6483509,29.3809759 98.140643,21.795438 C103.597219,14.2594788 113.117457,22.3586518 113.240478,22.4637586 C108.281938,17.4265648 101.321331,14.2634451 97.1425856,20.2981619 C91.1522569,28.9466667 106.329476,32.6730002 106.329476,32.6730002 C105.664766,32.6135058 105.033787,32.5778092 104.418682,32.5540114 C104.152798,32.4389889 103.890882,32.3160337 103.619046,32.2188595 C101.80151,31.5485558 99.882779,31.2233196 97.9739694,31.1003645 C96.0611914,30.9734431 94.1503975,31.0448364 92.2475406,31.1519263 C91.3010726,31.2074545 90.3228573,31.2847972 89.4359156,31.6774603 C88.568816,32.064174 87.7929901,32.8157868 87.6441743,33.77563 C87.8227532,32.8217363 88.6144528,32.1097864 89.4716314,31.7587694 C90.348652,31.4018029 91.3109936,31.3542074 92.2554774,31.3284264 C94.1563502,31.2808309 96.0611914,31.2709152 97.9442062,31.4553479 C99.6387212,31.6159828 101.313394,31.9531178 102.898778,32.5282305 C90.0728469,32.6194552 89.0073263,40.8693475 89.1978104,44.6551754 C85.122244,47.4454635 81.3304195,50.6700608 77.8719422,54.2655066 C77.7548738,52.6452754 77.6933633,51.0349599 77.9056737,49.4305938 C78.0783,48.1375818 78.4552998,46.8624182 79.0763574,45.7062434 C79.6954308,44.5540349 80.5863409,43.5208152 81.7371824,42.8505115 C80.5585619,43.4672703 79.6041571,44.4727259 78.921589,45.6189849 C78.2350525,46.7672271 77.7925738,48.0562728 77.5564528,49.3770488 C77.2330267,51.1975779 77.2568372,53.0359553 77.3163635,54.8584676 C77.0207163,55.173788 76.7211006,55.4851421 76.4294218,55.8064119 C76.052422,53.192624 74.9888857,49.5357006 71.9788397,49.7062512 C67.9370048,49.9382795 68.8021202,59.3740937 69.10372,61.8748423 C68.3596415,61.0042407 67.7504891,60.0186165 67.3000735,58.9536665 C66.2980477,56.5699236 66.0401005,53.9303547 65.8912847,51.3383814 C65.9230321,53.934321 66.0539899,56.5877719 66.9706948,59.0845542 C67.3715051,60.1693357 67.938989,61.1966059 68.6473518,62.1247188 C67.758426,61.575387 65.9547794,60.6750382 64.7880642,61.5515893 C63.1907755,62.7494102 68.2505099,65.0101979 68.2505099,65.0101979 C68.2505099,65.0101979 68.09971,65.1232373 67.8556522,65.3294846 C66.1730425,65.2918048 64.4904328,65.3255183 62.8157599,65.4345914 C61.7065867,65.5218499 60.5855083,65.5674623 59.4902246,65.8411366 C58.4108146,66.1128278 57.3433099,66.7097551 56.7916996,67.6953792 C57.3948993,66.7434686 58.4663725,66.223884 59.5299088,66.0156536 C60.6073346,65.8034568 61.7224604,65.8153557 62.8296494,65.7895748 C64.2920118,65.7717265 65.7523901,65.8173388 67.2087999,65.9125299 C65.5638902,67.4732667 62.6669442,70.8703978 63.8554857,74.5808662 C58.8334513,85.1173271 56,97.0638056 56,109.724217 C56,152.278589 88.0112531,174 127.500992,174 C166.988747,174 199,152.278589 199,109.724217" id="Fill-68" fill="#E2F1F3"></path>
            <path d="M92,114 C92,114 124.641861,104.808814 165,112.717311 C165,112.717311 127.808169,99.0367156 92,114" id="Fill-70" fill="#E2F1F3"></path>
            <path d="M96,112 C105.627035,110.146351 128.010238,106.939497 155,110.418593 C142.497331,108.174596 119.339767,105.708401 96,112" id="Fill-72" fill="#E2F1F3"></path>
            <path d="M96,112 C105.627035,110.146351 128.010238,106.939497 155,110.418593 C142.497331,108.174596 119.339767,105.708401 96,112" id="Fill-74" fill="#E2F1F3"></path>
            <path d="M117,134 C117,134 125.627922,130.875 132,132.557692 C132,132.557692 126.216234,128.230769 117,134" id="Fill-76" fill="#E2F1F3"></path>
            <path d="M116.352613,55 C116.352613,55 114.914529,46.335185 117.846769,46.0089436 C120.77901,45.6827023 121,54.3902394 121,54.3902394" id="Stroke-78" stroke="#415A59" stroke-linecap="round"></path>
            <path d="M133.647387,56 C133.647387,56 135.085471,47.335185 132.153231,47.0089436 C129.22099,46.6827023 129,55.3902394 129,55.3902394" id="Stroke-80" stroke="#415A59" stroke-linecap="round"></path>
            <path d="M115,44 C115,44 116.232571,41.9960495 118,42.7193296 C118,42.7193296 115.803087,40.4383429 115,44" id="Fill-82" fill="#99D2D7"></path>
            <path d="M135,40 C135,40 133.357915,37.9960495 131,38.7193296 C131,38.7193296 133.92822,36.4383429 135,40" id="Fill-84" fill="#E2F1F3"></path>
            <path d="M105,51 C105,51 102.162572,51.0490506 102,53" id="Stroke-86" stroke="#4C7A89" stroke-linecap="round"></path>
            <path d="M145,50.0210005 C145,50.0210005 147.419231,50.0110005 148,51.9790005" id="Stroke-88" stroke="#4C7A89" stroke-linecap="round"></path>
            <path d="M106,54.8391372 C106,54.8391372 107.666519,50.9323897 110.382105,51.0008904 C113.097691,51.0671814 111.788854,56.7394781 111.788854,56.7394781 C111.788854,56.7394781 114.590364,55.5351923 115,59 C115,59 109.714698,58.0542489 106,54.8391372" id="Fill-90" fill="#99D2D7"></path>
            <path d="M106,54.8391372 C106,54.8391372 107.666519,50.9323897 110.382105,51.0008904 C113.097691,51.0671814 111.788854,56.7394781 111.788854,56.7394781 C111.788854,56.7394781 114.590364,55.5351923 115,59 C115,59 109.714698,58.0542489 106,54.8391372" id="Fill-92" fill="#FEFEFE"></path>
            <path d="M117,59 C117,59 117.710245,64.0231584 121.370573,63.9999196 C125.03304,63.9766808 126,59.5237671 126,59.5237671 L117,59 Z" id="Fill-94" fill="#99D2D7"></path>
            <path d="M117,59 C117,59 117.710245,64.0231584 121.370573,63.9999196 C125.03304,63.9766808 126,59.5237671 126,59.5237671 L117,59 Z" id="Fill-96" fill="#FEFEFE"></path>
            <path d="M137.07638,58 C137.07638,58 136.290603,55.0208728 139.759727,55.9878622 C139.759727,55.9878622 141.088861,49.9296371 144,55.066314 C144,55.066314 141.818213,57.0966283 137.07638,58" id="Fill-98" fill="#99D2D7"></path>
            <path d="M137.07638,58 C137.07638,58 136.290603,55.0208728 139.759727,55.9878622 C139.759727,55.9878622 141.088861,49.9296371 144,55.066314 C144,55.066314 141.818213,57.0966283 137.07638,58" id="Fill-100" fill="#FEFEFE"></path>
            <path d="M129,59 C129,59 130.065391,54.7700381 132,58.6133596 L129,59 Z" id="Fill-102" fill="#99D2D7"></path>
            <path d="M130,59 C130,59 131.065391,54.7700381 133,58.6133596 L130,59 Z" id="Fill-104" fill="#FEFEFE"></path>
            <path d="M103,51.8778389 C103,51.8778389 107.154621,60 126.109197,60 C145.061759,60 148,51 148,51" id="Stroke-106" stroke="#4C7A89" stroke-linecap="round"></path>
            <path d="M119,77.3851725 C119,77.3851725 126.731773,79.990462 132,76 C132,76 128.534367,81.7008912 119,77.3851725" id="Fill-108" fill="#99D2D7"></path>
            <path d="M118.803337,34.9106547 C119.567541,36.7935515 118.037046,39.2558011 115.383213,40.4101833 C112.731469,41.5645655 109.960709,40.972242 109.196506,39.0893453 C108.432302,37.2042867 109.964885,34.7441989 112.61663,33.5898167 C115.268374,32.4354345 118.039134,33.027758 118.803337,34.9106547" id="Fill-110" fill="#E2F1F3"></path>
            <path d="M118.803337,33.9106547 C119.567541,35.7935515 118.037046,38.2558011 115.383213,39.4101833 C112.731469,40.5645655 109.960709,39.972242 109.196506,38.0893453 C108.432302,36.2042867 109.964885,33.7441989 112.61663,32.5898167 C115.268374,31.4354345 118.039134,32.027758 118.803337,33.9106547" id="Fill-112" fill="#FEFEFE"></path>
            <path d="M118.808659,33.8974377 C118.353695,32.8374852 117.21728,32.295372 116.148413,32.2205281 C115.057693,32.1416385 113.978893,32.4309003 113.019298,32.8961467 C112.065662,33.3795983 111.219311,34.0713994 110.64117,34.9209797 C110.057068,35.7543775 109.778924,36.7880335 110.126604,37.6113172 C110.45839,38.4386466 111.380237,38.9645772 112.37162,39.1223564 C113.372937,39.2983409 114.451737,39.1668582 115.459015,38.8108436 C116.456358,38.4386466 117.415954,37.8560772 118.123233,37.006497 C118.820579,36.1771448 119.233821,34.9695271 118.808659,33.8974377 M118.808659,33.8974377 C119.249715,34.9594131 118.874221,36.1832132 118.232504,37.091455 C117.586813,38.0259933 116.672913,38.7622962 115.651728,39.2740672 C114.622597,39.7676328 113.466314,40.0751 112.26831,39.9840735 C111.10408,39.9011383 109.768991,39.2983409 109.210717,38.0017196 C108.692177,36.6909386 109.20277,35.2951995 109.959718,34.3910034 C110.73256,33.4544423 111.759704,32.8293939 112.824597,32.4268547 C113.90141,32.0425208 115.057693,31.8928328 116.164307,32.0809542 C117.251054,32.2488474 118.371576,32.8334396 118.808659,33.8974377" id="Fill-114" fill="#E2F1F3"></path>
            <path d="M115.774039,37.5883197 C113.105003,38.6031235 110.316176,38.082419 109.546989,36.4271866 C109.338931,35.9767961 109.305305,35.4902985 109.412487,35 C108.966947,35.7772561 108.861867,36.5982209 109.198123,37.3203659 C109.96731,38.9755983 112.754036,39.4963029 115.425173,38.4814991 C117.369156,37.7422506 118.709979,36.3929797 119,35.0760153 C118.424161,36.0813171 117.278787,37.0163049 115.774039,37.5883197" id="Fill-116" fill="#E2F1F3"></path>
            <path d="M115.774039,37.5883197 C113.105003,38.6031235 110.316176,38.082419 109.546989,36.4271866 C109.338931,35.9767961 109.305305,35.4902985 109.412487,35 C108.966947,35.7772561 108.861867,36.5982209 109.198123,37.3203659 C109.96731,38.9755983 112.754036,39.4963029 115.425173,38.4814991 C117.369156,37.7422506 118.709979,36.3929797 119,35.0760153 C118.424161,36.0813171 117.278787,37.0163049 115.774039,37.5883197" id="Fill-118" fill="#E2F1F3"></path>
            <path d="M133.777758,86.6857085 C113.187504,86.6857085 96.4962676,73.1245313 96.4962676,56.3967748 C96.4962676,51.1856481 98.1170282,46.2826849 100.970846,42 C93.4286134,47.1479137 89,58.1114291 89,67.3385608 C89,84.1394074 105.165638,91 125.106389,91 C138.92782,91 150.930641,87.7010683 157,80.0838944 C150.628872,84.2124975 142.561042,86.6857085 133.777758,86.6857085" id="Fill-120" fill="#E2F1F3"></path>
            <path d="M130.196659,29.9106547 C129.432468,31.7935515 130.962939,34.2558011 133.61673,35.4101833 C136.268433,36.5645655 139.039149,35.972242 139.803341,34.0893453 C140.567532,32.2042867 139.037061,29.7441989 136.38327,28.5898167 C133.731567,27.4354345 130.960851,28.027758 130.196659,29.9106547" id="Fill-122" fill="#E2F1F3"></path>
            <path d="M130.196659,28.9106547 C129.432468,30.7935515 130.962939,33.2558011 133.61673,34.4101833 C136.268433,35.5645655 139.039149,34.972242 139.803341,33.0893453 C140.567532,31.2042867 139.037061,28.7441989 136.38327,27.5898167 C133.731567,26.4354345 130.960851,27.027758 130.196659,28.9106547" id="Fill-124" fill="#FEFEFE"></path>
            <path d="M130.191341,28.8971592 C130.628424,27.833113 131.748946,27.2484945 132.835693,27.0805937 C133.942307,26.8924639 135.09859,27.0441815 136.175403,27.4265099 C137.240296,27.8310901 138.26744,28.4541438 139.040282,29.3907471 C139.79723,30.294984 140.307823,31.690786 139.789283,33.0016261 C139.231009,34.2983059 137.89592,34.9011305 136.73169,34.9840695 C135.533686,35.0751001 134.37939,34.767619 133.348272,34.276054 C132.327087,33.762237 131.413187,33.0259009 130.767496,32.0913205 C130.125779,31.1830378 129.750285,29.9591824 130.191341,28.8971592 M130.191341,28.8971592 C129.766179,29.9692969 130.179421,31.1769691 130.876767,32.0063586 C131.584046,32.8559772 132.543642,33.4385728 133.540985,33.8107867 C134.548263,34.1668173 135.627063,34.2983059 136.62838,34.1223135 C137.619763,33.9645272 138.54161,33.4385728 138.873396,32.6112061 C139.221076,31.7878853 138.942932,30.7541827 138.360817,29.9207473 C137.780689,29.0731516 136.936324,28.3792964 135.980702,27.895823 C135.021107,27.4305557 133.942307,27.1412808 132.851587,27.2201739 C131.78272,27.2950213 130.646305,27.8371588 130.191341,28.8971592" id="Fill-126" fill="#E2F1F3"></path>
            <path d="M133.225961,33.5883197 C135.894997,34.6031235 138.683824,34.082419 139.453011,32.4271866 C139.661069,31.9767961 139.694695,31.4902985 139.587513,31 C140.033053,31.7772561 140.138133,32.5982209 139.801877,33.3203659 C139.03269,34.9755983 136.245964,35.4963029 133.574827,34.4814991 C131.630844,33.7422506 130.290021,32.3929797 130,31.0760153 C130.575839,32.0794167 131.721213,33.0163049 133.225961,33.5883197" id="Fill-128" fill="#E2F1F3"></path>
            <path d="M133.225961,33.5883197 C135.894997,34.6031235 138.683824,34.082419 139.453011,32.4271866 C139.661069,31.9767961 139.694695,31.4902985 139.587513,31 C140.033053,31.7772561 140.138133,32.5982209 139.801877,33.3203659 C139.03269,34.9755983 136.245964,35.4963029 133.574827,34.4814991 C131.630844,33.7422506 130.290021,32.3929797 130,31.0760153 C130.575839,32.0794167 131.721213,33.0163049 133.225961,33.5883197" id="Fill-130" fill="#E2F1F3"></path>
            <path d="M105,46.5 C105,48.43309 102.538105,50 99.4990184,50 C96.4618954,50 94,48.43309 94,46.5 C94,44.56691 96.4618954,43 99.4990184,43 C102.538105,43 105,44.56691 105,46.5" id="Fill-132" fill="#E53624"></path>
            <path d="M157,45.5 C157,47.43309 154.538105,49 151.499018,49 C148.461895,49 146,47.43309 146,45.5 C146,43.56691 148.461895,42 151.499018,42 C154.538105,42 157,43.56691 157,45.5" id="Fill-134" fill="#E53624"></path>
        </g>
    </g>
</svg>