<svg width="139" height="54" xmlns="http://www.w3.org/2000/svg" xmlns:xlink="http://www.w3.org/1999/xlink">
    <defs>
        <path id="a" d="M0 54h139V0H0z"/>
    </defs>
    <g fill="none" fill-rule="evenodd">
        <path fill="#1D1D1B" d="M82 35.85 80.89 40h-.587L79 35h.567l1.051 4.264L81.739 35h.522l1.121 4.264L84.44 35H85l-1.298 5h-.593z"/>
        <g>
            <path d="M86.643 39.907c.766 0 1.313-.58 1.313-1.374 0-.786-.547-1.374-1.313-1.374-.765 0-1.298.595-1.298 1.374 0 .8.54 1.374 1.298 1.374m.008-3.24c1.072 0 1.851.8 1.851 1.866 0 1.067-.793 1.867-1.859 1.867-1.066 0-1.851-.786-1.851-1.867 0-1.074.8-1.867 1.859-1.867M90.783 37.207c-.813 0-1.052.642-1.052 1.401v1.703h-.54v-3.556h.533v.595c.123-.355.52-.684 1.06-.684v.54zM92.901 37.159c-.697 0-1.203.574-1.203 1.388 0 .827.526 1.367 1.21 1.367.745 0 1.203-.622 1.203-1.367 0-.882-.547-1.388-1.21-1.388zm1.736 3.152h-.526v-.56c-.09.129-.458.649-1.23.649-1.019 0-1.736-.773-1.736-1.86 0-1.094.683-1.874 1.695-1.874.738 0 1.148.479 1.25.663v-1.962h.547v4.944zM96.904 37.815c.575 0 .91-.356.91-.91 0-.546-.335-.888-.91-.888h-.71v1.798h.71zm-1.263-2.29h1.311c.868 0 1.429.512 1.429 1.38 0 .862-.588 1.402-1.429 1.402h-.759v2.004h-.552v-4.787zM100.628 37.207c-.813 0-1.052.642-1.052 1.401v1.703h-.54v-3.556h.532v.595c.124-.355.52-.684 1.06-.684v.54zM103.716 38.246c-.034-.739-.546-1.115-1.134-1.115-.581 0-1.1.445-1.142 1.115h2.276zm-1.134-1.58c1.045 0 1.688.752 1.688 1.82 0 .02 0 .095-.007.163h-2.85c.007.794.54 1.272 1.278 1.272.601 0 .936-.314 1.107-.553l.355.26c-.197.334-.663.772-1.469.772-1.08 0-1.824-.76-1.824-1.853 0-1.136.779-1.88 1.722-1.88zM105.06 39.395c.151.28.404.547.89.547.354 0 .656-.205.656-.568 0-.82-1.785-.54-1.785-1.744 0-.601.5-.964 1.142-.964.663 0 1.004.418 1.1.684l-.396.226c-.096-.192-.28-.459-.739-.459-.327 0-.587.185-.587.493 0 .8 1.79.499 1.79 1.737 0 .629-.52 1.053-1.209 1.053-.745 0-1.08-.424-1.237-.76l.376-.245zM107.91 39.395c.15.28.403.547.888.547.355 0 .656-.205.656-.568 0-.82-1.784-.54-1.784-1.744 0-.601.499-.964 1.142-.964.662 0 1.004.418 1.1.684l-.397.226c-.095-.192-.28-.459-.738-.459-.327 0-.588.185-.588.493 0 .8 1.791.499 1.791 1.737 0 .629-.52 1.053-1.209 1.053-.745 0-1.08-.424-1.238-.76l.376-.245zM114.12 39.907c.697 0 1.203-.567 1.203-1.381 0-.834-.533-1.367-1.217-1.367-.738 0-1.202.622-1.202 1.367 0 .875.547 1.381 1.216 1.381zm-1.736-3.152h.52v.56a1.47 1.47 0 0 1 1.237-.649c1.011 0 1.735.773 1.735 1.86 0 1.101-.69 1.874-1.694 1.874a1.47 1.47 0 0 1-1.258-.663v1.853h-.54v-4.835z" fill="#1D1D1B"/>
            <mask id="b" fill="#fff">
                <use xlink:href="#a"/>
            </mask>
            <path fill="#1D1D1B" mask="url(#b)" d="M116.572 40.311h.54v-4.944h-.54zM118.007 38.977v-2.222h.54v2.243c0 .567.362.91.84.91.547 0 .922-.404.922-.992v-2.16h.548v3.555h-.54v-.513c-.164.321-.568.602-1.053.602-.827 0-1.257-.616-1.257-1.423M123.26 37.159c-.69 0-1.202.567-1.202 1.38 0 .828.533 1.368 1.216 1.368.731 0 1.203-.601 1.203-1.367 0-.862-.54-1.381-1.216-1.381zm-1.127 3.685c.137.082.56.294 1.073.294.676 0 1.25-.28 1.25-1.073v-.315c-.082.13-.45.65-1.23.65-1.018 0-1.715-.773-1.715-1.86 0-1.094.704-1.874 1.708-1.874.738 0 1.142.472 1.258.663v-.574h.52v3.063c0 1.348-.76 1.806-1.784 1.806-.465 0-.964-.164-1.272-.356l.192-.424zM125.956 40.31h.854v-3.555h-.854v3.556zm.422-4.84c.335 0 .595.164.595.369 0 .212-.26.376-.595.376-.324 0-.583-.164-.583-.376 0-.205.259-.37.583-.37zM130.209 38.089v2.222h-.54v-2.243c0-.567-.356-.91-.84-.91-.548 0-.923.404-.923.992v2.16h-.54v-3.555h.533v.513c.17-.321.567-.602 1.06-.602.826 0 1.25.616 1.25 1.423M131.22 39.395c.149.28.402.547.887.547.356 0 .657-.205.657-.568 0-.82-1.784-.54-1.784-1.744 0-.601.499-.964 1.14-.964.664 0 1.006.418 1.101.684l-.396.226c-.096-.192-.28-.459-.738-.459-.328 0-.588.185-.588.493 0 .8 1.79.499 1.79 1.737 0 .629-.519 1.053-1.21 1.053-.744 0-1.079-.424-1.236-.76l.376-.245zM88.665 45.416h-.396v-.458h.396v-.185c0-.895.54-1.182 1.114-1.182.116 0 .225.013.225.013v.472s-.088-.014-.17-.014c-.404 0-.622.22-.622.711v.185h.759v.458h-.76v3.098h-.546v-3.098zM92.109 48.11c.765 0 1.312-.581 1.312-1.374 0-.786-.547-1.374-1.312-1.374s-1.299.594-1.299 1.374c0 .8.54 1.374 1.299 1.374m.007-3.24c1.072 0 1.852.799 1.852 1.866 0 1.066-.794 1.866-1.86 1.866-1.065 0-1.85-.786-1.85-1.866 0-1.074.798-1.867 1.858-1.867M96.249 45.41c-.813 0-1.053.642-1.053 1.401v1.703h-.54v-3.556h.533v.595c.123-.356.52-.684 1.06-.684v.54zM98.36 48.11l2.814-3.884h-2.726v-.499h3.444v.41l-2.822 3.878h2.835v.499H98.36zM105.062 46.449c-.034-.739-.547-1.115-1.135-1.115-.58 0-1.1.445-1.141 1.115h2.276zm-1.135-1.58c1.046 0 1.689.752 1.689 1.82 0 .02 0 .095-.008.163h-2.85c.007.793.54 1.272 1.279 1.272a1.3 1.3 0 0 0 1.107-.554l.355.26c-.198.335-.663.772-1.469.772-1.08 0-1.825-.758-1.825-1.852 0-1.136.78-1.88 1.722-1.88zM109.14 46.291v2.223h-.54V46.27c0-.568-.355-.91-.84-.91-.547 0-.923.404-.923.992v2.16h-.54v-3.555h.533v.513c.171-.321.568-.602 1.06-.602.827 0 1.25.615 1.25 1.422M111.558 45.361c-.697 0-1.203.575-1.203 1.389 0 .827.526 1.367 1.21 1.367.745 0 1.203-.622 1.203-1.367 0-.883-.547-1.389-1.21-1.389zm1.735 3.153h-.525v-.561c-.09.13-.458.65-1.23.65-1.019 0-1.736-.773-1.736-1.86 0-1.095.683-1.874 1.694-1.874.739 0 1.149.479 1.251.663V43.57h.546v4.944zM116.846 46.449c-.034-.739-.546-1.115-1.134-1.115-.581 0-1.1.445-1.142 1.115h2.276zm-1.134-1.58c1.045 0 1.688.752 1.688 1.82 0 .02 0 .095-.007.163h-2.85c.007.793.54 1.272 1.278 1.272.601 0 .936-.315 1.107-.554l.356.26c-.199.335-.663.772-1.47.772-1.08 0-1.824-.758-1.824-1.852 0-1.136.778-1.88 1.722-1.88zM118.191 47.597c.15.28.403.547.888.547.356 0 .656-.205.656-.567 0-.82-1.783-.54-1.783-1.744 0-.602.498-.964 1.14-.964.664 0 1.006.417 1.101.684l-.396.226c-.096-.192-.28-.459-.738-.459-.328 0-.588.185-.588.493 0 .8 1.79.499 1.79 1.737 0 .629-.519 1.053-1.209 1.053-.745 0-1.08-.424-1.237-.76l.376-.246zM120.93 43.57h.54v2.913l1.449-1.525h.683l-1.53 1.593 1.62 1.963h-.698l-1.524-1.894v1.894h-.54z"/>
            <g mask="url(#b)" fill="#005E72">
                <path d="M76.208 30.586c-1.623 0-2.733-1.538-3.046-4.073 2.192 0 3.786-1.652 5.295-3.56l-.77-.342c-1.08-3.788-3.415-9.825-5.237-11.961.171-.17 1.822-1.68 4.128-1.68 1.68 0 3.501.797 4.27 9.512h.17c.74-1.424 1.366-3.332 1.366-5.696 0-.826-.085-2.335-.54-3.218.597-.313 1.536-.598 3.273-.598 1.821 0 2.761.825 2.761 2.22 0 5.099-6.86 19.396-11.67 19.396M97.442 14.495c0-.57-.057-1.51-.455-1.994-.342-.17-.683-.17-.91-.17-1.11 0-1.823 1.053-1.908 2.391l3.273-.227zm-3.188 2.876c.114 1.623.996 2.62 2.135 2.905 1.025-.256 2.249-.74 4.013-2.307 0 0 1.623.826 1.623 2.393 0 2.42-3.416 3.417-5.664 3.417-5.095 0-7.43-2.877-7.43-7.262 0-2.65.969-7.547 7.458-7.547 4.554 0 5.807 2.364 5.807 5.012 0 .712-.086 2.108-.313 2.82l-7.629.569zM105.242 12.757h-2.192c0-2.335.456-3.503 1.451-3.503h.883c0-.712-.114-2.22-.114-2.591 0-1.51 5.55-1.795 5.55-1.795l-.313 4.386h3.33c0 1.68-.028 3.532-1.821 3.532h-1.48c-.142 1.566-.2 2.962-.2 4.813 0 1.709.171 2.193.37 2.392.854-.085 1.538-.797 2.107-1.452 1.139.797 1.451 1.709 1.451 2.449 0 2.193-2.817 2.79-4.354 2.79-2.989 0-4.953-1.423-4.953-4.47 0-2.136.256-4.756.285-6.55M116.2 15.548c0-2.506-.027-3.275-.967-5.382.711-.57 2.334-1.054 3.444-1.054 2.704 0 2.733 1.082 2.733 3.816 0 2.08-.228 3.731-.228 6.01 0 1.85 1.11 3.388 1.11 3.388s-1.537 1.225-3.615 1.225c-1.708 0-2.647-.712-2.647-2.962 0-1.68.17-2.99.17-5.04m2.164-13.215c1.765 0 3.188 1.167 3.188 2.648s-1.423 2.649-3.188 2.649c-1.765 0-3.16-1.168-3.16-2.649 0-1.48 1.395-2.648 3.16-2.648M130.974 18.653h-.114c-1.053 3.161-2.249 5.126-4.27 5.126-1.594 0-3.273-1.567-3.5-2.278 1.679-1.026 3.927-3.96 4.81-5.554-1.224-2.165-2.59-3.845-4.44-5.64 1.28-.796 2.418-1.337 4.013-1.337 1.65 0 2.96 1.253 3.87 4.215h.114c1.31-3.133 2.363-4.215 3.786-4.215 1.964 0 3.444 1.822 3.757 2.563-1.793.626-3.757 2.42-4.895 4.386 1.394 2.42 3.13 4.67 4.725 5.866-.456.627-1.908 1.994-3.786 1.994-1.537 0-2.99-1.965-4.07-5.126"/>
            </g>
            <path d="M7.336 37.287c-3.27-4.763-6.113-9.98-7.042-15.684C-.635 15.9.595 9.62 4.585 5.44c.941-.985 2.083-1.87 3.428-2.088 2.284-.37 4.364 1.224 6.556 1.962C21.275 7.57 27.83 1.767 34.76.35c5.398-1.104 11.008.544 15.95 2.98 5.311 2.619 10.532 6.715 11.708 12.521 1.058 5.226-1.409 10.464-3.96 15.145-1.857 3.408-3.853 6.84-6.78 9.389-3.954 3.443-9.192 4.935-14.246 6.33-3.078.849-6.24 1.706-9.419 1.41-6.359-.592-11.36-5.567-17.296-7.924" fill="#005E72" mask="url(#b)"/>
            <path d="m13.309 45.345.001.034c-.278-.335-.695-.673-1.31-.994l-4.03 1.236s-1.235 4.287-.411 4.646c.823.358 1.857-.05 1.857-.05s.862.457 1.47.297c.609-.16.876-.493.876-.493s1.01.66 1.886.429c.876-.232 1.549-3.809-.325-2.501 0 0 .241-.283.38-.72.468.231 1.315.553 1.745.124.612-.612-2.139-2.008-2.139-2.008" fill="#BCE1E7" mask="url(#b)"/>
            <path d="M13.31 45.38c-.278-.336-.695-.674-1.31-.995l-3.82 1.17c.048.049.095.097.144.144 0 0-.216.105-.445.255-.058.219-.138.53-.22.886.635.178 1.863-.353 1.863-.353s2.696 1.03 3.96.35c.497-.267.623-.67.594-1.061-.42-.255-.767-.431-.767-.431l.001.034z" fill="#E2F1F3" mask="url(#b)"/>
            <path d="M13.31 45.38c-.278-.336-.695-.674-1.31-.995l-3.82 1.17c.048.049.095.097.144.144 0 0-.216.105-.445.255-.058.219-.138.53-.22.886.635.178 1.863-.353 1.863-.353s2.696 1.03 3.96.35c.497-.267.623-.67.594-1.061-.42-.255-.767-.431-.767-.431l.001.034z" fill="#E2F1F3" mask="url(#b)"/>
            <path d="M10.887 50.514c.608-.16.875-.493.875-.493s1.01.66 1.886.429c.876-.232 1.549-3.809-.325-2.5 0 0 .241-.284.38-.72.468.23 1.315.552 1.745.123.522-.522-1.403-1.615-1.98-1.924-.259.146-.486.37 0 .576.81.34-.629 2.725-.629 2.725.277-.174.546-.443.546-.443s.343 1.053-.366 1.457c-.71.405-1.258-.016-1.258-.016-.845 1.225-2.345.49-2.345.49s.862.456 1.47.296" fill="#E2F1F3" mask="url(#b)"/>
            <path d="M19.093 16.73s-5.791 1.013-9.882 13.581c0 0-1.534-1.276-.774.883 0 0-5.507 9.241-.366 14.15 0 0-1.39.67-.854 1.057.536.389 2.051-.27 2.051-.27s2.696 1.032 3.96.351c1.264-.68.135-2.238.135-2.238s4.029-6.861 1.112-13.276c0 0 1.573-5.121 6.158-8.138" fill="#FEFEFE" mask="url(#b)"/>
            <path d="M19.093 16.73s-5.791 1.013-9.882 13.581c0 0-1.534-1.276-.774.883 0 0-5.507 9.241-.366 14.15 0 0-1.39.67-.854 1.057.536.389 2.051-.27 2.051-.27s2.696 1.032 3.96.351c1.264-.68.135-2.238.135-2.238s4.029-6.861 1.112-13.276c0 0 1.573-5.121 6.158-8.138" fill="#E2F1F3" mask="url(#b)"/>
            <path d="M17.644 18.273c-.42.334-1.175 1.076-.972 1.978a19.37 19.37 0 0 0-2.59 8.14c-.286 3.238.256 6.034 1.434 8.365.091-1.833-.151-3.831-1.041-5.788 0 0 1.573-5.121 6.158-8.138l-1.54-6.1s-.343.061-.922.333c0 .12.003.22.005.295a2.53 2.53 0 0 1-.143-.228l-.097.05c.04.078.08.154.127.228a1.931 1.931 0 0 0-.254-.162c-.178.097-.371.21-.578.344.24.246.678.491.678.491s-.038.024-.1.068" fill="#E2F1F3" mask="url(#b)"/>
            <path d="M17.644 18.273c-.42.334-1.175 1.076-.972 1.978a19.37 19.37 0 0 0-2.59 8.14c-.286 3.238.256 6.034 1.434 8.365.091-1.833-.151-3.831-1.041-5.788 0 0 1.573-5.121 6.158-8.138l-1.54-6.1s-.343.061-.922.333c0 .12.003.22.005.295a2.53 2.53 0 0 1-.143-.228l-.097.05c.04.078.08.154.127.228a1.931 1.931 0 0 0-.254-.162c-.178.097-.371.21-.578.344.24.246.678.491.678.491s-.038.024-.1.068" fill="#E2F1F3" mask="url(#b)"/>
            <path d="m50.708 44.488-.002.033c.278-.315.69-.628 1.295-.919l3.847 1.316s1.059 4.173.254 4.493c-.806.32-1.79-.105-1.79-.105s-.846.414-1.427.241c-.582-.173-.829-.502-.829-.502s-.995.605-1.832.355c-.838-.25-1.377-3.72.39-2.402 0 0-.223-.28-.343-.705-.46.208-1.286.492-1.687.065-.572-.608 2.124-1.87 2.124-1.87" fill="#BCE1E7" mask="url(#b)"/>
            <path d="M50.706 44.521c.278-.315.691-.628 1.295-.919l3.646 1.247c-.047.045-.094.09-.143.134 0 0 .206.107.422.26.05.212.116.514.185.861-.618.152-1.786-.399-1.786-.399s-2.632.912-3.83.217c-.471-.274-.58-.666-.54-1.043.413-.232.753-.391.753-.391l-.002.033z" fill="#E2F1F3" mask="url(#b)"/>
            <path d="M50.706 44.521c.278-.315.691-.628 1.295-.919l3.646 1.247c-.047.045-.094.09-.143.134 0 0 .206.107.422.26.05.212.116.514.185.861-.618.152-1.786-.399-1.786-.399s-2.632.912-3.83.217c-.471-.274-.58-.666-.54-1.043.413-.232.753-.391.753-.391l-.002.033z" fill="#E2F1F3" mask="url(#b)"/>
            <path d="M52.885 49.547c-.582-.173-.829-.502-.829-.502s-.995.605-1.832.355c-.838-.25-1.376-3.72.39-2.402 0 0-.223-.28-.344-.705-.458.208-1.285.492-1.686.065-.488-.519 1.402-1.513 1.967-1.794.246.15.458.373-.017.555-.79.304.523 2.647.523 2.647-.262-.175-.513-.443-.513-.443s-.363 1.004.309 1.416c.67.412 1.213.023 1.213.023.777 1.207 2.246.545 2.246.545s-.846.414-1.427.24" fill="#E2F1F3" mask="url(#b)"/>
            <path d="M46.012 16.715s5.554 1.155 9.11 13.402c0 0 1.52-1.184.72.874 0 0 5.026 9.082-.082 13.658 0 0 1.319.688.79 1.045-.528.359-1.97-.323-1.97-.323s-2.631.911-3.83.216c-1.197-.695-.06-2.163-.06-2.163s-3.673-6.74-.663-12.836c0 0-1.36-4.988-5.688-8.038" fill="#FEFEFE" mask="url(#b)"/>
            <path d="M24.117 47.904s-.581 3.236-2.274 3.842c0 0-.884-.48-1.339.152-.454.632.329 1.617 1.807 1.112 0 0 1.376.96 2.564.14 0 0 1.575 1.073 2.358-.014 0 0 .581.936 1.97.86 1.39-.076 1.364-1.542 1.364-1.542s.914-.015.935-.278c.177-2.165-.994-4.272-.994-4.272" fill="#BCE1E7" mask="url(#b)"/>
            <path d="M29.725 47.904c.02.033.043.067.066.102 1.793 2.611-1.287 3.302-1.287 3.302 1.481.084 1.768 1.904.42 2.083-1.347.18-1.734-1.156-1.734-1.156s-.219.977-.994 1.044c-.775.068-1.364-.522-1.364-.522-.418.987-1.976.53-2 .523.51.205 1.312.375 2.042-.13 0 0 1.576 1.073 2.359-.014 0 0 .581.936 1.97.86 1.39-.076 1.365-1.542 1.365-1.542s.913-.015.934-.278c.177-2.165-.995-4.272-.995-4.272h-.782z" fill="#E2F1F3" mask="url(#b)"/>
            <path d="M30.507 47.904h-6.39s-.085.47-.283 1.086c.382-.118.813-.327.813-.327s-.202 1.65.674 1.65c.875 0 1.145-1.414 1.145-1.414s1.313.539 1.92.471c.606-.067.774-.64.774-.64s-.134.977.37.876c.506-.1.438-.943.438-.943s.524.26 1.061.445a8.714 8.714 0 0 0-.522-1.204" fill="#E2F1F3" mask="url(#b)"/>
            <path d="M15.065 33.219s2.425 9.715 8.69 14.702c0 0-.741.506-.607.775.135.27 1.381-.337 1.381-.337s-.202 1.652.674 1.652c.875 0 1.145-1.416 1.145-1.416s1.313.54 1.92.472c.606-.067.774-.64.774-.64s-.135.977.37.876c.506-.101.439-.944.439-.944s1.481.742 2.02.607c.54-.135-1.077-1.28-1.077-1.28s.344-2.31.64-4.55c.295-2.24-16.37-9.917-16.37-9.917" fill="#FEFEFE" mask="url(#b)"/>
            <path d="M15.065 33.219s2.425 9.715 8.69 14.702c0 0-.741.506-.607.775.135.27 1.381-.337 1.381-.337s-.202 1.652.674 1.652c.875 0 1.145-1.416 1.145-1.416s1.313.54 1.92.472c.606-.067.774-.64.774-.64s-.135.977.37.876c.506-.101.439-.944.439-.944s1.481.742 2.02.607c.54-.135-1.077-1.28-1.077-1.28s.344-2.31.64-4.55c.295-2.24-16.37-9.917-16.37-9.917" fill="#E2F1F3" mask="url(#b)"/>
            <path d="M16.371 33.832c1.994 6.53 7.768 10.181 14.851 10.863.07-.503.142-1.033.211-1.559.245-1.855-11.14-7.44-15.062-9.304" fill="#E2F1F3" mask="url(#b)"/>
            <path d="M16.371 33.832c1.994 6.53 7.768 10.181 14.851 10.863.07-.503.142-1.033.211-1.559.245-1.855-11.14-7.44-15.062-9.304" fill="#E2F1F3" mask="url(#b)"/>
            <path d="M40.339 47.904s.58 3.236 2.274 3.842c0 0 .884-.48 1.338.152.455.632-.328 1.617-1.806 1.112 0 0-1.377.96-2.564.14 0 0-1.576 1.073-2.359-.014 0 0-.58.936-1.97.86-1.39-.076-1.364-1.542-1.364-1.542s-.913-.015-.935-.278c-.176-2.165.995-4.272.995-4.272" fill="#BCE1E7" mask="url(#b)"/>
            <path d="M34.731 47.904a5.397 5.397 0 0 1-.067.102c-1.793 2.611 1.288 3.302 1.288 3.302-1.482.084-1.768 1.904-.42 2.083 1.346.18 1.734-1.156 1.734-1.156s.219.977.993 1.044c.775.068 1.364-.522 1.364-.522.418.987 1.977.53 2 .523-.509.205-1.311.375-2.042-.13 0 0-1.576 1.073-2.358-.014 0 0-.582.936-1.971.86-1.389-.076-1.364-1.542-1.364-1.542s-.913-.015-.934-.278c-.178-2.165.994-4.272.994-4.272h.783z" fill="#E2F1F3" mask="url(#b)"/>
            <path d="M33.948 47.904h6.391s.085.47.283 1.086c-.383-.118-.813-.327-.813-.327s.202 1.65-.674 1.65c-.876 0-1.145-1.414-1.145-1.414s-1.314.539-1.92.471c-.606-.067-.775-.64-.775-.64s.135.977-.37.876c-.505-.1-.438-.943-.438-.943s-.523.26-1.06.445c.258-.73.521-1.204.521-1.204" fill="#E2F1F3" mask="url(#b)"/>
            <path d="M49.39 33.219s-2.424 9.715-8.689 14.702c0 0 .74.506.606.775-.134.27-1.38-.337-1.38-.337s.201 1.652-.674 1.652c-.876 0-1.145-1.416-1.145-1.416s-1.314.54-1.92.472c-.606-.067-.775-.64-.775-.64s.135.977-.37.876c-.505-.101-.438-.944-.438-.944s-1.482.742-2.02.607c-.54-.135 1.077-1.28 1.077-1.28s-.344-2.31-.64-4.55c-.296-2.24 16.369-9.917 16.369-9.917" fill="#FEFEFE" mask="url(#b)"/>
            <path d="M49.39 33.219s-2.424 9.715-8.689 14.702c0 0 .74.506.606.775-.134.27-1.38-.337-1.38-.337s.201 1.652-.674 1.652c-.876 0-1.145-1.416-1.145-1.416s-1.314.54-1.92.472c-.606-.067-.775-.64-.775-.64s.135.977-.37.876c-.505-.101-.438-.944-.438-.944s-1.482.742-2.02.607c-.54-.135 1.077-1.28 1.077-1.28s-.344-2.31-.64-4.55c-.296-2.24 16.369-9.917 16.369-9.917" fill="#E2F1F3" mask="url(#b)"/>
            <path d="M48.085 33.832c-1.994 6.53-7.768 10.181-14.852 10.863-.07-.503-.141-1.033-.21-1.559-.246-1.855 11.14-7.44 15.062-9.304" fill="#E2F1F3" mask="url(#b)"/>
            <path d="M48.085 33.832c-1.994 6.53-7.768 10.181-14.852 10.863-.07-.503-.141-1.033-.21-1.559-.246-1.855 11.14-7.44 15.062-9.304" fill="#E2F1F3" mask="url(#b)"/>
            <path d="M50.616 18.225c-.147-.911-2.523-1.49-3.128-1.622.327-.336.633-.69.911-1.065.219-.298.432-.603.598-.935.166-.33.282-.693.288-1.063-.02.37-.15.722-.328 1.042a6.44 6.44 0 0 1-.629.9c-.29.36-.607.698-.942 1.016.13-.271.538-1.205-.037-1.205-.359 0-.593.325-.734.628a18.76 18.76 0 0 0-4.878-4.802c-.174-.851-1.003-1.238-1.566-1.404.405-.12.822-.2 1.244-.228.723-.05 1.468.058 2.131.374-.65-.343-1.398-.484-2.135-.464a5.957 5.957 0 0 0-1.518.246c-.156-.034-.257-.045-.257-.045s.875-1.045.37-1.079c-.477-.031-.983.716-1.038.8-.001-.48-.013-.961-.044-1.44-.02-.294-.036-.595-.129-.88-.091-.282-.273-.55-.543-.677.263.14.425.412.5.69.076.281.078.576.082.87.005.337 0 .673-.01 1.009-.31-.82-1.216-2.527-3.432-2.73-2.93-.27-4.345 1.347-4.345 1.347l.028-.11c.432-.562.898-1.094 1.458-1.529a4.637 4.637 0 0 1 1.356-.74 3.33 3.33 0 0 1 1.535-.159 3.35 3.35 0 0 0-1.55.117c-.5.153-.972.4-1.395.71-.5.367-.933.81-1.332 1.28l.046-.249.009-.026c.15-.432.332-.854.572-1.243.24-.387.542-.74.915-1.007a2.479 2.479 0 0 1 1.272-.475 2.494 2.494 0 0 0-1.298.439 3.525 3.525 0 0 0-.965.995 5.701 5.701 0 0 0-.434.798c.084-.852.005-1.839-.823-1.8-1.01.047-.906 1.42-.751 2.247a13.786 13.786 0 0 0-.888-1.827c-.258-.433-.56-.849-.943-1.18-.381-.33-.847-.576-1.349-.637.5.076.953.334 1.32.67.368.338.652.756.894 1.192.331.607.611 1.242.847 1.891-1.08-1.824-3.673-3.818-5.058-1.817-1.515 2.19 2.324 3.134 2.324 3.134a9.271 9.271 0 0 0-.483-.03c-.068-.029-.134-.06-.202-.085a5.058 5.058 0 0 0-1.429-.283 11.758 11.758 0 0 0-1.448.013c-.24.014-.487.033-.711.133-.22.098-.416.288-.453.531.045-.241.245-.422.462-.51.222-.09.465-.103.704-.11.48-.011.963-.014 1.439.033.429.04.852.126 1.253.271-3.244.024-3.514 2.113-3.466 3.071a18.43 18.43 0 0 0-2.865 2.434c-.029-.41-.045-.818.01-1.224.043-.327.138-.65.295-.943.156-.292.382-.554.673-.724-.298.157-.54.411-.712.701a2.84 2.84 0 0 0-.346.952c-.082.461-.075.927-.06 1.388l-.224.24c-.096-.661-.365-1.588-1.126-1.544-1.023.058-.804 2.448-.728 3.081a2.85 2.85 0 0 1-.456-.74c-.253-.603-.319-1.272-.356-1.928.008.657.041 1.33.273 1.962.101.274.245.535.424.77-.225-.14-.68-.367-.976-.146-.404.304.876.876.876.876s-.038.029-.1.081c-.426-.01-.852-.001-1.275.027-.28.022-.564.033-.841.103-.274.069-.543.22-.683.47.153-.242.424-.374.693-.426.272-.054.554-.05.834-.057.37-.005.74.006 1.108.03-.416.396-1.149 1.257-.848 2.196a20.677 20.677 0 0 0-1.987 8.9c0 10.776 8.097 16.276 18.086 16.276 9.99 0 18.087-5.5 18.087-16.276 0-2.543-.452-4.972-1.272-7.2.532-.892-.682-2.27-.682-2.27s2.459 1.044 2.29 0" fill="#FEFEFE" mask="url(#b)"/>
            <path d="M40.932 17.029c0 4.271-4.06 6.015-9.068 6.015s-9.068-1.744-9.068-6.015c0-4.272 3.687-10.01 9.068-5.611 5.28-1.972 9.068 1.34 9.068 5.61" fill="#BCE1E7" mask="url(#b)"/>
            <path d="M31.864 11.736c5.21-1.946 8.967 1.255 9.064 5.446 0-.052.005-.102.005-.153 0-4.272-3.79-7.583-9.07-5.611-5.38-4.398-9.068 1.34-9.068 5.61 0 .036.003.07.004.106.119-4.245 3.773-9.723 9.065-5.398" fill="#99D2D7" mask="url(#b)"/>
            <path d="M50.279 27.695c0-.526-.02-1.047-.059-1.562-.63 5.7-3.43 11.176-11.73 13.997-9.093 3.09-21.37-2.65-21.622-13.21-.253-10.562 5.927-15.022 5.927-15.022-.13-4.007 5.129-3.64 5.129-3.64s-4.547-.91-3.158-2.83c1.38-1.909 3.788.142 3.82.169-1.255-1.276-3.015-2.077-4.073-.549-1.515 2.19 2.324 3.134 2.324 3.134a9.257 9.257 0 0 0-.483-.03c-.067-.03-.134-.06-.202-.085a5.075 5.075 0 0 0-1.429-.283 11.765 11.765 0 0 0-1.448.013c-.24.014-.487.033-.711.133-.22.098-.416.288-.454.532.045-.242.246-.422.462-.511.223-.09.466-.103.705-.11.48-.011.962-.014 1.44.033.427.04.851.126 1.252.271-3.244.024-3.514 2.113-3.466 3.071a18.433 18.433 0 0 0-2.864 2.434c-.03-.41-.045-.818.008-1.224.044-.327.139-.65.296-.944.157-.291.382-.553.673-.723a1.85 1.85 0 0 0-.712.701 2.834 2.834 0 0 0-.345.952c-.082.461-.076.927-.061 1.388l-.224.24c-.096-.661-.365-1.588-1.126-1.544-1.023.058-.804 2.448-.728 3.081a2.855 2.855 0 0 1-.456-.74c-.253-.603-.319-1.272-.356-1.928.008.657.041 1.33.273 1.962.101.274.245.535.424.77-.225-.14-.681-.367-.976-.146-.404.304.875.876.875.876l-.1.081c-.425-.01-.85-.001-1.274.027-.28.022-.564.033-.842.103-.272.069-.543.22-.682.47.153-.242.424-.373.693-.426.272-.054.555-.05.834-.057.37-.005.74.006 1.108.03-.416.396-1.149 1.256-.848 2.196a20.683 20.683 0 0 0-1.987 8.9c0 10.776 8.098 16.276 18.087 16.276 9.988 0 18.086-5.5 18.086-16.276" fill="#E2F1F3" mask="url(#b)"/>
            <path d="M23.142 28.857s8.336-2.173 18.642-.303c0 0-9.498-3.235-18.642.303" fill="#E2F1F3" mask="url(#b)"/>
            <path d="M24.429 28.58c2.44-.465 8.112-1.27 14.952-.397-3.168-.562-9.037-1.182-14.952.397" fill="#E2F1F3" mask="url(#b)"/>
            <path d="M24.429 28.58c2.44-.465 8.112-1.27 14.952-.397-3.168-.562-9.037-1.182-14.952.397M29.692 34.165s2.222-.986 3.864-.455c0 0-1.49-1.365-3.864.455" fill="#E2F1F3" mask="url(#b)"/>
            <path d="M29.363 14.13s-.438-2.24.455-2.325c.892-.084.96 2.168.96 2.168M33.934 14.247s.438-2.241-.454-2.326c-.893-.084-.96 2.168-.96 2.168" stroke="#415A59" stroke-linecap="round" mask="url(#b)"/>
            <path d="M28.925 11.249s.388-.606.943-.387c0 0-.69-.691-.943.387" fill="#99D2D7" mask="url(#b)"/>
            <path d="M34.213 10.443s-.42-.606-1.02-.387c0 0 .747-.69 1.02.387" fill="#E2F1F3" mask="url(#b)"/>
            <path d="M26.585 13.083s-.657.015-.695.635M36.903 12.909s.632-.003.784.491" stroke="#4C7A89" stroke-linecap="round" mask="url(#b)"/>
            <path d="M26.865 13.955s.418-.887 1.1-.872c.682.015.354 1.304.354 1.304s.704-.273.806.514c0 0-1.327-.215-2.26-.946" fill="#99D2D7" mask="url(#b)"/>
            <path d="M26.772 13.955s.419-.887 1.1-.872c.683.015.354 1.304.354 1.304s.704-.273.807.514c0 0-1.328-.215-2.26-.946" fill="#FEFEFE" mask="url(#b)"/>
            <path d="M29.634 15.036s.167 1.411 1.026 1.405c.859-.007 1.086-1.258 1.086-1.258l-2.112-.147z" fill="#99D2D7" mask="url(#b)"/>
            <path d="M29.752 15.036s.167 1.411 1.026 1.405c.859-.007 1.086-1.258 1.086-1.258l-2.112-.147z" fill="#FEFEFE" mask="url(#b)"/>
            <path d="M34.785 14.824s-.189-.823.645-.556c0 0 .319-1.674 1.018-.255 0 0-.524.561-1.663.81" fill="#99D2D7" mask="url(#b)"/>
            <path d="M34.895 14.803s-.19-.823.644-.556c0 0 .32-1.674 1.019-.255 0 0-.525.561-1.663.81" fill="#FEFEFE" mask="url(#b)"/>
            <path d="M32.705 15.162s.335-1.104.943-.1l-.943.1z" fill="#99D2D7" mask="url(#b)"/>
            <path d="M32.812 15.153s.335-1.104.944-.1l-.944.1z" fill="#FEFEFE" mask="url(#b)"/>
            <path d="M26.105 13.288s1.035 1.896 5.759 1.896c4.723 0 5.456-2.101 5.456-2.101" stroke="#4C7A89" stroke-linecap="round" mask="url(#b)"/>
            <path d="M30.173 19.733s2.002.809 3.366-.43c0 0-.898 1.77-3.366.43" fill="#99D2D7" mask="url(#b)"/>
            <path d="M30.057 8.789c.183.437-.185 1.01-.822 1.277-.638.268-1.304.13-1.488-.307-.183-.437.185-1.01.822-1.277.638-.269 1.304-.131 1.488.307" fill="#E2F1F3" mask="url(#b)"/>
            <path d="M30.103 8.599c.184.438-.184 1.01-.822 1.278-.637.268-1.303.13-1.487-.308-.183-.437.184-1.01.822-1.277.638-.268 1.304-.13 1.487.307" fill="#FEFEFE" mask="url(#b)"/>
            <path d="M30.103 8.599c-.117-.261-.402-.394-.672-.42a1.6 1.6 0 0 0-.795.16 1.624 1.624 0 0 0-.614.5c-.156.206-.23.476-.136.691.087.22.333.355.589.388.257.04.532.004.787-.088a1.59 1.59 0 0 0 .67-.458c.17-.21.276-.506.171-.773m0 0c.114.263.02.57-.147.79-.166.23-.397.41-.655.533-.26.12-.55.192-.847.166-.29-.027-.614-.172-.752-.48-.124-.314 0-.648.183-.873.19-.231.445-.387.712-.49.268-.097.559-.137.838-.094.275.035.56.182.668.448" fill="#E2F1F3" mask="url(#b)"/>
            <path d="M29.365 9.64c-.638.268-1.304.13-1.488-.307a.64.64 0 0 1-.031-.377c-.107.206-.132.423-.052.613.184.438.85.575 1.487.308.465-.196.785-.552.854-.9-.137.265-.411.512-.77.663" fill="#E2F1F3" mask="url(#b)"/>
            <path d="M29.365 9.64c-.638.268-1.304.13-1.488-.307a.64.64 0 0 1-.031-.377c-.107.206-.132.423-.052.613.184.438.85.575 1.487.308.465-.196.785-.552.854-.9-.137.265-.411.512-.77.663M34.042 21.947c-5.171 0-9.363-3.447-9.363-7.7 0-1.325.407-2.571 1.123-3.66-1.894 1.308-3.006 4.096-3.006 6.442 0 4.271 4.06 6.015 9.068 6.015 3.471 0 6.486-.839 8.01-2.775-1.6 1.05-3.626 1.678-5.832 1.678M32.998 7.765c-.184.437.184 1.01.822 1.277.637.268 1.303.13 1.487-.307.184-.438-.184-1.01-.822-1.278-.638-.267-1.304-.13-1.487.308" fill="#E2F1F3" mask="url(#b)"/>
            <path d="M32.951 7.575c-.184.437.184 1.01.822 1.277.638.269 1.304.131 1.487-.307.184-.437-.184-1.01-.822-1.277-.637-.268-1.303-.13-1.487.307" fill="#FEFEFE" mask="url(#b)"/>
            <path d="M32.951 7.575c.108-.266.393-.413.668-.448.28-.043.57-.003.839.095.266.102.522.258.711.489.182.225.307.56.184.873-.139.308-.464.453-.752.48a1.691 1.691 0 0 1-.847-.166 1.719 1.719 0 0 1-.655-.532c-.168-.22-.262-.528-.148-.791m0 0c-.104.267 0 .563.171.773.176.214.418.362.67.458.255.092.53.128.788.088.256-.033.501-.169.588-.388.095-.215.02-.485-.136-.69a1.618 1.618 0 0 0-.613-.502 1.6 1.6 0 0 0-.796-.158c-.27.025-.555.158-.672.419" fill="#E2F1F3" mask="url(#b)"/>
            <path d="M33.69 8.616c.637.268 1.303.13 1.487-.307a.64.64 0 0 0 .032-.377c.106.206.131.423.051.613-.184.438-.85.575-1.487.308-.465-.196-.785-.552-.854-.9.137.265.411.512.77.663" fill="#E2F1F3" mask="url(#b)"/>
            <path d="M33.69 8.616c.637.268 1.303.13 1.487-.307a.64.64 0 0 0 .032-.377c.106.206.131.423.051.613-.184.438-.85.575-1.487.308-.465-.196-.785-.552-.854-.9.137.265.411.512.77.663" fill="#E2F1F3" mask="url(#b)"/>
            <path d="M26.585 11.94c0 .456-.63.825-1.407.825-.776 0-1.406-.369-1.406-.825 0-.456.63-.826 1.406-.826.777 0 1.407.37 1.407.826M39.922 11.803c0 .456-.63.825-1.406.825-.777 0-1.406-.37-1.406-.825 0-.456.63-.826 1.406-.826.777 0 1.406.37 1.406.826" fill="#E53624" mask="url(#b)"/>
        </g>
    </g>
</svg>
