<?xml version="1.0" encoding="UTF-8"?>
<svg width="12px" height="12px" viewBox="0 0 12 12" version="1.1" xmlns="http://www.w3.org/2000/svg" xmlns:xlink="http://www.w3.org/1999/xlink">
    <title>noun_Monster_184225</title>
    <g id="yetix-request" stroke="none" stroke-width="1" fill="none" fill-rule="evenodd">
        <g id="Artboard" transform="translate(-3.000000, -134.000000)" fill="#FFFFFF" fill-rule="nonzero">
            <g id="noun_Monster_184225" transform="translate(3.000000, 134.000000)">
                <path d="M12,8.34603928 C11.9003808,8.07392805 11.8355159,6.47883934 11.8355159,6.47883934 L11.956557,6.51522976 C11.956557,6.51522976 11.4632545,4.5455425 11.081106,4.11999737 L11.1906123,4.02627347 C11.1906123,4.02627347 10.2422071,2.62427679 9.18144935,2.39835911 C9.04932276,2.16635161 8.88079396,1.92290712 8.88079396,1.92290712 L9.06250546,1.93241318 C8.7807253,1.58351074 8.0721553,1.04864581 8.0721553,1.04864581 L8.43932339,1.06023133 C7.94916672,0.698852167 7.35339866,0.586710257 7.35339866,0.586710257 C7.2353536,0.330640516 6.90608576,0.175572762 6.90608576,0.175572762 C6.91866925,0.399856583 6.71763311,0.424810015 6.71763311,0.424810015 C6.31705886,0.365248549 6.62969852,0.00119580374 6.62969852,0.00119580374 C6.18987579,-0.023757628 5.80398227,0.350098252 5.80398227,0.350098252 C5.59410773,0.250433057 5.80398227,0.00119580374 5.80398227,0.00119580374 C5.40550527,0.0261492355 5.12162786,0.474716878 5.12162786,0.474716878 C4.89542476,0.474716878 4.76973972,0.12581443 4.76973972,0.12581443 C4.58128706,0.32514482 4.66457774,0.561756825 4.66457774,0.561756825 C4.00169777,0.783367064 3.50045565,1.13509163 3.50045565,1.13509163 L3.72665876,1.13509163 C3.42959865,1.33070871 3.02063542,2.03430636 2.82274515,2.39731938 C1.76048936,2.62041495 0.809537482,4.02627347 0.809537482,4.02627347 L0.919043755,4.11999737 C0.536745522,4.5455425 0.0434429811,6.51522976 0.0434429811,6.51522976 L0.164484115,6.47883934 C0.164484115,6.47883934 0.0996192497,8.07377952 0,8.34603928 C0,8.34603928 0.069209163,8.3240565 0.145009675,8.22765901 C0.145009675,8.22765901 0.00539292179,9.04859721 0.0509331502,9.29590354 C0.0963235753,9.54335841 0.151301417,9.87562524 0.377354722,9.88587397 C0.377354722,9.88587397 0.434429811,10.0967899 0.779726609,9.99563936 C0.779726609,9.99563936 0.887585045,10.2015052 1.15303664,10.1495189 C1.32665876,10.1156535 1.54402347,9.94097946 1.64514075,9.72783557 C1.9171837,9.90354931 2.10144186,9.40819399 2.10144186,9.40819399 C2.17259846,8.98368858 2.12346295,8.67993996 2.0633918,8.59988104 C2.00317084,8.51967358 1.74850509,7.99208673 1.74850509,7.99208673 L1.97515761,8.07719576 C1.67060733,7.52658641 1.95148867,6.0532942 1.95148867,6.0532942 L2.05964671,6.25901148 C2.07118157,5.74494108 2.45333,5.03837278 2.45333,5.03837278 C2.39041258,5.43718209 2.34801823,5.87446128 2.35865427,6.30193733 C2.39221022,7.66427588 2.67548842,8.67771198 2.59249735,9.12627962 L2.82768866,8.76059302 C2.82768866,8.76059302 2.86109481,9.69099955 2.99531864,9.97335951 C3.12939267,10.2557195 3.08744772,10.7708296 3.05389177,10.903766 L3.28009488,10.538228 C3.28009488,10.538228 3.36383497,11.4436811 3.42255789,11.7012361 C3.48113102,11.9587912 3.82463017,12.0251851 4.26025841,11.9920624 C4.69603645,11.9587912 4.93886774,12.0834098 5.03938581,11.7095539 C5.13990388,11.3356981 4.85512764,11.2193972 5.28236689,10.322262 C5.28236689,10.322262 5.50018101,10.3583553 5.81072343,10.3792984 L5.80413208,10.393706 C5.8713938,10.3932604 5.93685787,10.3917751 6.0000749,10.38925 C6.06329193,10.3916266 6.12875601,10.3932604 6.19601773,10.393706 L6.18957618,10.3792984 C6.50011859,10.3583553 6.71778291,10.322262 6.71778291,10.322262 C7.14502216,11.2193972 6.86024593,11.3356981 6.960764,11.7095539 C7.06128207,12.0834098 7.30426315,11.9587912 7.73989139,11.9920624 C8.17551963,12.0253337 8.51901879,11.9587912 8.57774171,11.7012361 C8.63646464,11.4436811 8.72020473,10.538228 8.72020473,10.538228 L8.94640784,10.903766 C8.91285188,10.7708296 8.87105674,10.255868 9.00513077,9.97335951 C9.13920479,9.69099955 9.17261095,8.76059302 9.17261095,8.76059302 L9.40795206,9.12613109 C9.32496099,8.67756345 9.60823919,7.66412734 9.64179514,6.3017888 C9.65228138,5.87431274 9.61003683,5.43718209 9.54711941,5.03822425 C9.54711941,5.03822425 9.92926784,5.74479255 9.9408027,6.25886295 L10.0488109,6.05314567 C10.0488109,6.05314567 10.3296923,7.52643787 10.025142,8.07704723 L10.2516447,7.9919382 C10.2516447,7.9919382 9.99697897,8.51952504 9.93675801,8.5997325 C9.87653705,8.67979143 9.82755134,8.98354005 9.89870795,9.40804545 C9.89870795,9.40804545 10.0829661,9.90340078 10.3550091,9.72768703 C10.4561263,9.94097946 10.6736408,10.115505 10.8471132,10.1493703 C11.1125648,10.2012081 11.2204232,9.99549083 11.2204232,9.99549083 C11.56572,10.0966413 11.6227951,9.88572543 11.6227951,9.88572543 C11.8488484,9.8754767 11.9036764,9.54320988 11.9492167,9.29575501 C11.9946071,9.04844868 11.8551401,8.22751048 11.8551401,8.22751048 C11.9307908,8.32390796 12,8.34603928 12,8.34603928 Z M1.75712676,9.19614897 C1.72652065,8.91376425 1.67157218,9.42857143 1.67157218,9.42857143 C1.67157218,9.42857143 1.66635864,8.7153847 1.7187566,8.57553936 C1.7187566,8.57553936 1.76387811,8.5086781 1.77107954,8.91425407 C1.77306744,9.02642424 1.76631609,9.11606241 1.75712676,9.19614897 Z M4.24285714,2.57857141 C4.24285714,2.55095003 4.26522788,2.52857143 4.29283956,2.52857143 C4.32045123,2.52857143 4.34285714,2.55095003 4.34285714,2.57857141 C4.34285714,2.60619279 4.32048641,2.62857143 4.29283956,2.62857143 C4.26526305,2.62860657 4.24285714,2.60619279 4.24285714,2.57857141 Z M8.53640718,3.64458742 C8.51003446,3.67079406 7.87553769,4.28571429 6.42860581,4.28571429 C4.98167393,4.28571429 4.34702203,3.67079406 4.32080443,3.64458742 C4.28481342,3.60878727 4.27488486,3.53578304 4.29862032,3.48149785 C4.32235577,3.42721265 4.37075748,3.41223743 4.40674849,3.44803758 C4.41264358,3.45388727 5.03441938,4.05008846 6.42860581,4.05008846 C7.8226371,4.05008846 8.44456804,3.45388727 8.45061826,3.44780359 C8.48676441,3.41247141 8.53501098,3.42744664 8.55874643,3.48173183 C8.58217162,3.53601703 8.57224307,3.60878727 8.53640718,3.64458742 Z M7.72141098,2.62857143 C7.69379931,2.62857143 7.67142857,2.60619282 7.67142857,2.57857143 C7.67142857,2.55095004 7.69379931,2.52857143 7.72141098,2.52857143 C7.74902266,2.52857143 7.77142857,2.55095004 7.77142857,2.57857143 C7.77142857,2.60615764 7.74902266,2.62857143 7.72141098,2.62857143 Z M10.3427138,9.42857143 C10.3427138,9.42857143 10.2877858,8.91376425 10.2571911,9.19614897 C10.2479677,9.11606241 10.2412188,9.02642424 10.243206,8.91425407 C10.2504047,8.5086781 10.2955094,8.57553936 10.2955094,8.57553936 C10.3479254,8.71562961 10.3427138,9.42857143 10.3427138,9.42857143 Z" id="Shape"></path>
            </g>
        </g>
    </g>
</svg>